<?xml version="1.0" encoding="UTF-8"?>
<svg version="1.1" xmlns="http://www.w3.org/2000/svg" width="1024" height="1024">
<path d="M0 0 C337.92 0 675.84 0 1024 0 C1024 337.92 1024 675.84 1024 1024 C686.08 1024 348.16 1024 0 1024 C0 686.08 0 348.16 0 0 Z " fill="#FEFEFE" transform="translate(0,0)"/>
<path d="M0 0 C6.67060424 5.86975338 12.45118017 12.21597816 17.82421875 19.30078125 C19.02498047 20.81865234 19.02498047 20.81865234 20.25 22.3671875 C42.90103454 51.76976015 49.77719033 89.12471605 46.26171875 125.42578125 C40.64553879 162.43796725 20.43997704 198.35809979 -9.81640625 220.85546875 C-13.87336416 223.76587658 -18.00082092 226.56303202 -22.17578125 229.30078125 C-25.3038444 230.88270882 -25.3038444 230.88270882 -25.56054211 233.0929966 C-25.56745555 234.18532128 -25.56745555 234.18532128 -25.57450867 235.29971313 C-25.58704681 236.13546371 -25.59958496 236.97121429 -25.61250305 237.83229065 C-25.61106796 238.75082321 -25.60963287 239.66935577 -25.6081543 240.61572266 C-25.62344177 242.06456596 -25.62344177 242.06456596 -25.63903809 243.54267883 C-25.66931297 246.74595836 -25.67845616 249.9489396 -25.6875 253.15234375 C-25.70433593 255.36909999 -25.72248468 257.58584662 -25.74189758 259.80258179 C-25.78952153 265.64527382 -25.81925066 271.48792691 -25.84533691 277.33074951 C-25.87508002 283.28958837 -25.9216317 289.24829285 -25.96679688 295.20703125 C-26.05297097 306.9048778 -26.12025338 318.60275191 -26.17578125 330.30078125 C-25.55840591 330.36240952 -24.94103058 330.42403778 -24.3049469 330.48753357 C-23.49476608 330.57213333 -22.68458527 330.65673309 -21.84985352 330.74389648 C-20.64535301 330.86727638 -20.64535301 330.86727638 -19.41651917 330.9931488 C-11.11541518 332.13281307 -4.18320156 337.88015565 0.82421875 344.30078125 C4.52439625 350.42172164 6.93937898 355.96507985 6.96466064 363.15628052 C6.97322586 364.61953514 6.97322586 364.61953514 6.98196411 366.11235046 C6.98308197 367.17629532 6.98419983 368.24024017 6.98535156 369.33642578 C6.99031647 370.46211472 6.99528137 371.58780365 7.00039673 372.74760437 C7.01501542 376.4762737 7.02182075 380.20490045 7.02734375 383.93359375 C7.03309649 386.52708945 7.03885421 389.12058513 7.0446167 391.71408081 C7.05378334 396.46082886 7.06008326 401.20755993 7.06311345 405.9543153 C7.06758609 412.92098322 7.08509869 419.88745414 7.11411405 426.8540622 C7.1384269 432.90354378 7.14606229 438.95293296 7.147789 445.00246811 C7.15080907 447.56759588 7.15881569 450.13272296 7.17197418 452.69781876 C7.189106 456.29495221 7.18713644 459.89161138 7.18066406 463.48876953 C7.19448624 465.06646873 7.19448624 465.06646873 7.20858765 466.67604065 C7.14178905 478.57953764 3.84499296 487.41515834 -4.17578125 496.30078125 C-10.84193966 502.02933247 -17.37586942 504.42385694 -26.17578125 504.30078125 C-26.16911942 505.33457916 -26.16245758 506.36837708 -26.15559387 507.4335022 C-26.0944794 517.23005924 -26.04966407 527.02657702 -26.02034473 536.82328224 C-26.0047641 541.85850668 -25.9836666 546.89357583 -25.94946289 551.92871094 C-25.91659592 556.79816566 -25.89887125 561.66747208 -25.89114952 566.53702927 C-25.88565465 568.38434556 -25.87492625 570.23165478 -25.85859108 572.07890701 C-25.76649317 582.93674105 -26.27821971 592.76281299 -29.17578125 603.30078125 C-29.36785156 604.00574234 -29.55992187 604.71070343 -29.7578125 605.43702698 C-37.35280784 631.06282996 -55.1772998 653.32875342 -78.33740234 666.53320312 C-94.73009039 675.40178571 -112.63972475 680.47373683 -131.33514023 680.43500233 C-132.12009607 680.43735456 -132.90505191 680.43970679 -133.71379429 680.4421303 C-136.33604547 680.44877104 -138.95824653 680.44836357 -141.58050537 680.44795227 C-143.48293929 680.45125397 -145.38537251 680.45498019 -147.28780484 680.45909375 C-152.5100475 680.46908712 -157.73227866 680.47282625 -162.95452952 680.47548306 C-168.58945752 680.47939406 -174.22437649 680.48897186 -179.85929871 680.49769592 C-193.46537458 680.51743837 -207.07145118 680.52752395 -220.6775378 680.53642371 C-227.09045833 680.54081044 -233.50337803 680.54617627 -239.91629791 680.55141258 C-261.24409722 680.568423 -282.57189534 680.58294076 -303.89970016 680.59016132 C-305.27817673 680.59063607 -306.6566533 680.59111196 -308.03512986 680.59158899 C-308.71869852 680.59182536 -309.40226717 680.59206174 -310.10655003 680.59230528 C-313.56956851 680.59350641 -317.03258699 680.59472188 -320.49560547 680.59594727 C-321.18283936 680.59618742 -321.87007326 680.59642757 -322.57813242 680.59667499 C-344.84123576 680.60456138 -367.10428572 680.62798036 -389.36736576 680.66050321 C-412.93062066 680.69486224 -436.49383286 680.71451701 -460.05711579 680.71780556 C-472.89144113 680.71996721 -485.725688 680.72866527 -498.55998993 680.75426674 C-509.4928436 680.77602533 -520.42559974 680.78399882 -531.35847262 680.77429996 C-536.93056538 680.76977016 -542.50245712 680.77156437 -548.07452202 680.7910614 C-553.18869868 680.80880066 -558.30252928 680.80760886 -563.41671017 680.79216411 C-565.25396568 680.78980426 -567.09124585 680.79402587 -568.92846391 680.80599276 C-586.35175325 680.91233093 -603.20219833 678.56727852 -619.17578125 671.30078125 C-620.18898438 670.84832031 -621.2021875 670.39585937 -622.24609375 669.9296875 C-642.3245665 660.45531865 -658.33991847 644.49311447 -669.17578125 625.30078125 C-669.72234375 624.3675 -670.26890625 623.43421875 -670.83203125 622.47265625 C-677.798305 609.748544 -681.2897268 594.32162083 -681.31000233 579.87354755 C-681.31235456 579.15559213 -681.31470679 578.43763671 -681.3171303 577.69792506 C-681.32377528 575.29756876 -681.32336344 572.89726716 -681.32295227 570.49690247 C-681.32625372 568.75619875 -681.32997988 567.01549579 -681.33409375 565.2747938 C-681.34409022 560.49495307 -681.34782676 555.7151249 -681.35048306 550.9352752 C-681.3543932 545.77817957 -681.36397116 540.62109382 -681.37269592 535.46400452 C-681.39244209 523.00991294 -681.402525 510.55582058 -681.41142371 498.10171726 C-681.41581035 492.23122434 -681.42117625 486.36073231 -681.42641258 480.4902401 C-681.44342434 460.96479511 -681.45791675 441.43935068 -681.46516132 421.91389942 C-681.4670711 416.84893099 -681.46899145 411.78396256 -681.47094727 406.71899414 C-681.47143101 405.4601782 -681.47191475 404.20136225 -681.47241315 402.90440037 C-681.48070684 382.52937062 -681.50603284 362.1543997 -681.53852794 341.77939562 C-681.57164625 320.8422065 -681.58961447 299.90504723 -681.59280556 278.96783179 C-681.59496643 267.22001636 -681.60365278 255.47228668 -681.62926674 243.72449684 C-681.65103912 233.71571101 -681.65899216 223.70703177 -681.64929996 213.69822494 C-681.64477393 208.59801914 -681.6465419 203.49803294 -681.6660614 198.39785767 C-681.68382849 193.7147793 -681.68258699 189.03207854 -681.66716411 184.34899541 C-681.66480838 182.66850534 -681.66900379 180.98798816 -681.68099276 179.3075392 C-681.87141457 150.8167808 -673.12434232 125.62390201 -655.17578125 103.30078125 C-654.60085938 102.57117188 -654.0259375 101.8415625 -653.43359375 101.08984375 C-648.69269894 95.35086582 -643.05988331 90.82449203 -637.17578125 86.30078125 C-636.39460938 85.69234375 -635.6134375 85.08390625 -634.80859375 84.45703125 C-607.82548358 64.46954223 -577.343346 62.82474846 -545.02530932 62.95258439 C-540.85520721 62.96570122 -536.68511637 62.9611444 -532.51499939 62.95887756 C-525.31308871 62.95731458 -518.11126039 62.96662083 -510.90937042 62.98359108 C-500.49702621 63.00811018 -490.08472128 63.01579946 -479.67235133 63.01955505 C-462.77356979 63.02609944 -445.87483203 63.04600558 -428.97607422 63.07446289 C-412.57340715 63.10205584 -396.17075204 63.1232637 -379.76806641 63.13598633 C-378.24809987 63.13716858 -378.24809987 63.13716858 -376.69742694 63.13837472 C-371.61327141 63.14229021 -366.52911579 63.14608125 -361.44496012 63.14981043 C-319.3552034 63.18084357 -277.26549485 63.23362406 -235.17578125 63.30078125 C-235.04178421 62.68042055 -234.90778717 62.06005985 -234.76972961 61.42090034 C-234.59217636 60.60839758 -234.41462311 59.79589481 -234.23168945 58.95877075 C-234.05644241 58.15278505 -233.88119537 57.34679935 -233.70063782 56.51638985 C-233.13781844 54.14052655 -232.39006873 52.00766196 -231.36328125 49.79296875 C-231.01547607 49.04168701 -230.6676709 48.29040527 -230.30932617 47.51635742 C-229.93525635 46.74396729 -229.56118652 45.97157715 -229.17578125 45.17578125 C-228.77915283 44.35247314 -228.38252441 43.52916504 -227.97387695 42.6809082 C-211.17351898 8.67572092 -180.5025826 -18.00320257 -144.625 -30.3515625 C-93.34248455 -46.65525238 -40.52255224 -34.82151762 0 0 Z " fill="#FB7A78" transform="translate(866.17578125,184.69921875)"/>
<path d="M0 0 C6.67060424 5.86975338 12.45118017 12.21597816 17.82421875 19.30078125 C19.02498047 20.81865234 19.02498047 20.81865234 20.25 22.3671875 C42.90103454 51.76976015 49.77719033 89.12471605 46.26171875 125.42578125 C40.64553879 162.43796725 20.43997704 198.35809979 -9.81640625 220.85546875 C-13.87336416 223.76587658 -18.00082092 226.56303202 -22.17578125 229.30078125 C-25.3038444 230.88270882 -25.3038444 230.88270882 -25.56054211 233.0929966 C-25.56745555 234.18532128 -25.56745555 234.18532128 -25.57450867 235.29971313 C-25.58704681 236.13546371 -25.59958496 236.97121429 -25.61250305 237.83229065 C-25.61106796 238.75082321 -25.60963287 239.66935577 -25.6081543 240.61572266 C-25.62344177 242.06456596 -25.62344177 242.06456596 -25.63903809 243.54267883 C-25.66931297 246.74595836 -25.67845616 249.9489396 -25.6875 253.15234375 C-25.70433593 255.36909999 -25.72248468 257.58584662 -25.74189758 259.80258179 C-25.78952153 265.64527382 -25.81925066 271.48792691 -25.84533691 277.33074951 C-25.87508002 283.28958837 -25.9216317 289.24829285 -25.96679688 295.20703125 C-26.05297097 306.9048778 -26.12025338 318.60275191 -26.17578125 330.30078125 C-25.55840591 330.36240952 -24.94103058 330.42403778 -24.3049469 330.48753357 C-23.49476608 330.57213333 -22.68458527 330.65673309 -21.84985352 330.74389648 C-20.64535301 330.86727638 -20.64535301 330.86727638 -19.41651917 330.9931488 C-11.11541518 332.13281307 -4.18320156 337.88015565 0.82421875 344.30078125 C4.52439625 350.42172164 6.93937898 355.96507985 6.96466064 363.15628052 C6.97322586 364.61953514 6.97322586 364.61953514 6.98196411 366.11235046 C6.98308197 367.17629532 6.98419983 368.24024017 6.98535156 369.33642578 C6.99031647 370.46211472 6.99528137 371.58780365 7.00039673 372.74760437 C7.01501542 376.4762737 7.02182075 380.20490045 7.02734375 383.93359375 C7.03309649 386.52708945 7.03885421 389.12058513 7.0446167 391.71408081 C7.05378334 396.46082886 7.06008326 401.20755993 7.06311345 405.9543153 C7.06758609 412.92098322 7.08509869 419.88745414 7.11411405 426.8540622 C7.1384269 432.90354378 7.14606229 438.95293296 7.147789 445.00246811 C7.15080907 447.56759588 7.15881569 450.13272296 7.17197418 452.69781876 C7.189106 456.29495221 7.18713644 459.89161138 7.18066406 463.48876953 C7.19448624 465.06646873 7.19448624 465.06646873 7.20858765 466.67604065 C7.14178905 478.57953764 3.84499296 487.41515834 -4.17578125 496.30078125 C-10.84193966 502.02933247 -17.37586942 504.42385694 -26.17578125 504.30078125 C-26.16911942 505.33457916 -26.16245758 506.36837708 -26.15559387 507.4335022 C-26.0944794 517.23005924 -26.04966407 527.02657702 -26.02034473 536.82328224 C-26.0047641 541.85850668 -25.9836666 546.89357583 -25.94946289 551.92871094 C-25.91659592 556.79816566 -25.89887125 561.66747208 -25.89114952 566.53702927 C-25.88565465 568.38434556 -25.87492625 570.23165478 -25.85859108 572.07890701 C-25.76649317 582.93674105 -26.27821971 592.76281299 -29.17578125 603.30078125 C-29.36785156 604.00574234 -29.55992187 604.71070343 -29.7578125 605.43702698 C-37.35280784 631.06282996 -55.1772998 653.32875342 -78.33740234 666.53320312 C-94.73009039 675.40178571 -112.63972475 680.47373683 -131.33514023 680.43500233 C-132.12009607 680.43735456 -132.90505191 680.43970679 -133.71379429 680.4421303 C-136.33604547 680.44877104 -138.95824653 680.44836357 -141.58050537 680.44795227 C-143.48293929 680.45125397 -145.38537251 680.45498019 -147.28780484 680.45909375 C-152.5100475 680.46908712 -157.73227866 680.47282625 -162.95452952 680.47548306 C-168.58945752 680.47939406 -174.22437649 680.48897186 -179.85929871 680.49769592 C-193.46537458 680.51743837 -207.07145118 680.52752395 -220.6775378 680.53642371 C-227.09045833 680.54081044 -233.50337803 680.54617627 -239.91629791 680.55141258 C-261.24409722 680.568423 -282.57189534 680.58294076 -303.89970016 680.59016132 C-305.27817673 680.59063607 -306.6566533 680.59111196 -308.03512986 680.59158899 C-308.71869852 680.59182536 -309.40226717 680.59206174 -310.10655003 680.59230528 C-313.56956851 680.59350641 -317.03258699 680.59472188 -320.49560547 680.59594727 C-321.18283936 680.59618742 -321.87007326 680.59642757 -322.57813242 680.59667499 C-344.84123576 680.60456138 -367.10428572 680.62798036 -389.36736576 680.66050321 C-412.93062066 680.69486224 -436.49383286 680.71451701 -460.05711579 680.71780556 C-472.89144113 680.71996721 -485.725688 680.72866527 -498.55998993 680.75426674 C-509.4928436 680.77602533 -520.42559974 680.78399882 -531.35847262 680.77429996 C-536.93056538 680.76977016 -542.50245712 680.77156437 -548.07452202 680.7910614 C-553.18869868 680.80880066 -558.30252928 680.80760886 -563.41671017 680.79216411 C-565.25396568 680.78980426 -567.09124585 680.79402587 -568.92846391 680.80599276 C-586.35175325 680.91233093 -603.20219833 678.56727852 -619.17578125 671.30078125 C-620.18898438 670.84832031 -621.2021875 670.39585937 -622.24609375 669.9296875 C-642.3245665 660.45531865 -658.33991847 644.49311447 -669.17578125 625.30078125 C-669.72234375 624.3675 -670.26890625 623.43421875 -670.83203125 622.47265625 C-677.798305 609.748544 -681.2897268 594.32162083 -681.31000233 579.87354755 C-681.31235456 579.15559213 -681.31470679 578.43763671 -681.3171303 577.69792506 C-681.32377528 575.29756876 -681.32336344 572.89726716 -681.32295227 570.49690247 C-681.32625372 568.75619875 -681.32997988 567.01549579 -681.33409375 565.2747938 C-681.34409022 560.49495307 -681.34782676 555.7151249 -681.35048306 550.9352752 C-681.3543932 545.77817957 -681.36397116 540.62109382 -681.37269592 535.46400452 C-681.39244209 523.00991294 -681.402525 510.55582058 -681.41142371 498.10171726 C-681.41581035 492.23122434 -681.42117625 486.36073231 -681.42641258 480.4902401 C-681.44342434 460.96479511 -681.45791675 441.43935068 -681.46516132 421.91389942 C-681.4670711 416.84893099 -681.46899145 411.78396256 -681.47094727 406.71899414 C-681.47143101 405.4601782 -681.47191475 404.20136225 -681.47241315 402.90440037 C-681.48070684 382.52937062 -681.50603284 362.1543997 -681.53852794 341.77939562 C-681.57164625 320.8422065 -681.58961447 299.90504723 -681.59280556 278.96783179 C-681.59496643 267.22001636 -681.60365278 255.47228668 -681.62926674 243.72449684 C-681.65103912 233.71571101 -681.65899216 223.70703177 -681.64929996 213.69822494 C-681.64477393 208.59801914 -681.6465419 203.49803294 -681.6660614 198.39785767 C-681.68382849 193.7147793 -681.68258699 189.03207854 -681.66716411 184.34899541 C-681.66480838 182.66850534 -681.66900379 180.98798816 -681.68099276 179.3075392 C-681.87141457 150.8167808 -673.12434232 125.62390201 -655.17578125 103.30078125 C-654.60085938 102.57117188 -654.0259375 101.8415625 -653.43359375 101.08984375 C-648.69269894 95.35086582 -643.05988331 90.82449203 -637.17578125 86.30078125 C-636.39460938 85.69234375 -635.6134375 85.08390625 -634.80859375 84.45703125 C-607.82548358 64.46954223 -577.343346 62.82474846 -545.02530932 62.95258439 C-540.85520721 62.96570122 -536.68511637 62.9611444 -532.51499939 62.95887756 C-525.31308871 62.95731458 -518.11126039 62.96662083 -510.90937042 62.98359108 C-500.49702621 63.00811018 -490.08472128 63.01579946 -479.67235133 63.01955505 C-462.77356979 63.02609944 -445.87483203 63.04600558 -428.97607422 63.07446289 C-412.57340715 63.10205584 -396.17075204 63.1232637 -379.76806641 63.13598633 C-378.24809987 63.13716858 -378.24809987 63.13716858 -376.69742694 63.13837472 C-371.61327141 63.14229021 -366.52911579 63.14608125 -361.44496012 63.14981043 C-319.3552034 63.18084357 -277.26549485 63.23362406 -235.17578125 63.30078125 C-235.04178421 62.68042055 -234.90778717 62.06005985 -234.76972961 61.42090034 C-234.59217636 60.60839758 -234.41462311 59.79589481 -234.23168945 58.95877075 C-234.05644241 58.15278505 -233.88119537 57.34679935 -233.70063782 56.51638985 C-233.13781844 54.14052655 -232.39006873 52.00766196 -231.36328125 49.79296875 C-231.01547607 49.04168701 -230.6676709 48.29040527 -230.30932617 47.51635742 C-229.93525635 46.74396729 -229.56118652 45.97157715 -229.17578125 45.17578125 C-228.77915283 44.35247314 -228.38252441 43.52916504 -227.97387695 42.6809082 C-211.17351898 8.67572092 -180.5025826 -18.00320257 -144.625 -30.3515625 C-93.34248455 -46.65525238 -40.52255224 -34.82151762 0 0 Z M-658.17578125 208.30078125 C-658.11687094 256.21747735 -658.04230012 304.13412693 -657.94679497 352.05076481 C-657.93552712 357.71076356 -657.92438862 363.37076256 -657.91333008 369.03076172 C-657.91112639 370.15754176 -657.90892271 371.28432179 -657.90665225 372.44524668 C-657.87130238 390.67785273 -657.8464252 408.91045874 -657.82543423 427.14308633 C-657.80365378 445.85844669 -657.77058202 464.57376267 -657.72707969 483.28908527 C-657.70060168 494.83274144 -657.68287795 506.37634234 -657.67643521 517.92002736 C-657.67116955 525.84136818 -657.65491305 533.7626395 -657.63011559 541.68394305 C-657.61614097 546.25066218 -657.60691465 550.81725703 -657.61077309 555.38399887 C-657.61420486 559.57296159 -657.6036956 563.76165971 -657.58254573 567.9505683 C-657.57731459 569.45820075 -657.57700383 570.96586096 -657.58238562 572.47349288 C-657.62216251 584.89065245 -656.27092715 597.02214781 -651.05078125 608.42578125 C-650.75147705 609.0904541 -650.45217285 609.75512695 -650.14379883 610.43994141 C-640.8732295 630.14552227 -624.03684182 643.99431299 -603.94482422 651.45019531 C-596.30230967 654.12656228 -588.88284867 655.60438984 -580.78291035 655.55525684 C-579.98487284 655.55846332 -579.18683533 655.5616698 -578.36461487 655.56497344 C-575.70388364 655.57324167 -573.04337937 655.56736034 -570.38264465 655.56147766 C-568.45032198 655.5644998 -566.51800051 655.5683896 -564.58568114 655.57307023 C-559.28568511 655.58335107 -553.98575672 655.58116815 -548.68575513 655.57688963 C-542.96574828 655.57442254 -537.24575772 655.58343645 -531.52575684 655.59092712 C-520.32274744 655.60367719 -509.11976202 655.60546738 -497.91674659 655.60312686 C-488.80904974 655.60134366 -479.70136016 655.60309339 -470.59366417 655.6073513 C-469.29728128 655.60794649 -468.00089839 655.60854168 -466.66523116 655.60915491 C-464.03157221 655.61036667 -461.39791325 655.6115808 -458.76425429 655.61279728 C-441.08015198 655.62058468 -423.39605307 655.62450356 -405.71194935 655.62048054 C-405.02063509 655.62032416 -404.32932083 655.62016779 -403.61705765 655.62000667 C-400.11338495 655.61920092 -396.60971225 655.61835514 -393.10603956 655.61749337 C-392.41022868 655.61732228 -391.7144178 655.61715119 -390.99752174 655.61697492 C-389.59042284 655.61662826 -388.18332395 655.61627973 -386.77622505 655.61592933 C-364.88945636 655.61057401 -343.00272797 655.61849788 -321.1159668 655.63696289 C-296.51178631 655.65769629 -271.90763313 655.66837184 -247.30344313 655.6643874 C-234.28154848 655.66247566 -221.25969055 655.66496028 -208.23780251 655.67910194 C-197.1503654 655.691021 -186.0629876 655.6924148 -174.97554968 655.68031178 C-169.32119517 655.67442645 -163.66694911 655.67331415 -158.01260185 655.68531418 C-152.83035803 655.6961842 -147.64831305 655.69305617 -142.46607848 655.67905249 C-140.59733564 655.67640863 -138.72857715 655.67876225 -136.85984967 655.68678836 C-112.57764545 655.7837906 -91.58469778 650.00449785 -73.48828125 633.17578125 C-55.46337058 614.12371574 -49.64489759 591.80095373 -49.8828125 566.21484375 C-49.88842248 564.41881671 -49.89268593 562.62278502 -49.89567566 560.82675171 C-49.90701426 556.14801889 -49.93638393 551.46957493 -49.9697876 546.79095459 C-50.00072828 541.99739487 -50.01423177 537.2037875 -50.02929688 532.41015625 C-50.06126655 523.04023915 -50.11232627 513.67053441 -50.17578125 504.30078125 C-50.76917297 504.29931469 -51.3625647 504.29784813 -51.97393799 504.29633713 C-66.48364203 504.25911324 -80.99314462 504.19989461 -95.50265503 504.11687851 C-102.51967702 504.0772485 -109.53658946 504.04477534 -116.55371094 504.02978516 C-123.33606494 504.01527561 -130.11806657 503.97998239 -136.90026855 503.93247223 C-139.47714266 503.91772918 -142.05406531 503.90974434 -144.63098145 503.9088974 C-163.35221691 503.89656553 -179.05109188 502.4679408 -196.17578125 494.30078125 C-197.54283203 493.65689453 -197.54283203 493.65689453 -198.9375 493 C-220.05255564 482.30692618 -233.04803684 463.55058 -240.3515625 441.5078125 C-244.76538833 424.33363713 -245.2844812 406.08972456 -239.17578125 389.30078125 C-238.80195312 388.24761719 -238.428125 387.19445312 -238.04296875 386.109375 C-233.57805606 374.53312787 -226.84047007 365.10845173 -218.17578125 356.30078125 C-217.41523437 355.52734375 -216.6546875 354.75390625 -215.87109375 353.95703125 C-194.15098396 333.16269663 -166.98207763 330.86044251 -138.45703125 330.7890625 C-135.90156203 330.77218729 -133.34610096 330.7540333 -130.79064941 330.73466492 C-124.79526597 330.69226882 -118.79995519 330.66258951 -112.80447817 330.63934153 C-105.29404549 330.60941741 -97.7837602 330.55956024 -90.2734375 330.50976562 C-76.90759763 330.42123424 -63.54183281 330.36234661 -50.17578125 330.30078125 C-50.17578125 301.26078125 -50.17578125 272.22078125 -50.17578125 242.30078125 C-54.13578125 243.29078125 -58.09578125 244.28078125 -62.17578125 245.30078125 C-64.75412963 245.86570028 -67.33687842 246.41139226 -69.92578125 246.92578125 C-71.116875 247.16554688 -72.30796875 247.4053125 -73.53515625 247.65234375 C-92.67299987 251.06101547 -115.15986115 251.52757329 -133.9304288 245.76180494 C-137.16618757 245.09742753 -140.37555344 245.16176556 -143.6639204 245.17049599 C-144.80538856 245.16758084 -144.80538856 245.16758084 -145.96991667 245.16460681 C-148.53466362 245.15926803 -151.09935703 245.16105174 -153.66410828 245.16275024 C-155.5157303 245.16033289 -157.36735179 245.15747084 -159.2189725 245.15420091 C-164.31922719 245.14643454 -169.41946843 245.14482778 -174.5197283 245.14414978 C-180.01628952 245.14231231 -185.51284283 245.13470647 -191.00939941 245.12767029 C-200.54041635 245.11613501 -210.07143151 245.10789549 -219.60245323 245.10155106 C-234.6750696 245.09122817 -249.74766389 245.07066405 -264.82026672 245.0484314 C-269.97702687 245.04095118 -275.1337871 245.03353746 -280.29054737 245.02614403 C-281.57941383 245.02429346 -282.8682803 245.0224429 -284.19620332 245.02053625 C-298.87469657 244.99960038 -313.55319221 244.98076476 -328.23168945 244.96289062 C-329.23791886 244.96166111 -329.23791886 244.96166111 -330.26447614 244.96040675 C-345.90137215 244.9413389 -361.53826803 244.92437531 -377.1751709 244.91204834 C-378.18267289 244.91125384 -378.18267289 244.91125384 -379.21052845 244.91044329 C-384.62393524 244.90619199 -390.03734208 244.90201555 -395.45074893 244.89785849 C-418.43554998 244.88014748 -441.42032066 244.85116047 -464.4050954 244.81140935 C-478.16162804 244.78804291 -491.91810647 244.77401779 -505.67465911 244.77208172 C-515.11209423 244.76996758 -524.54947553 244.75699848 -533.98688646 244.73560239 C-539.42689254 244.72360967 -544.86679181 244.71639775 -550.30681038 244.72231483 C-555.29698176 244.72764518 -560.28693607 244.71901681 -565.27707133 244.69975846 C-567.07266068 244.69521748 -568.86827151 244.69560537 -570.66385623 244.70170684 C-585.02226652 244.74610333 -599.36437899 243.69268765 -612.92578125 238.55078125 C-613.62276123 238.29401611 -614.31974121 238.03725098 -615.0378418 237.77270508 C-630.7492222 231.7962333 -643.53972979 222.44052591 -655.09375 210.390625 C-655.78082031 209.70097656 -656.46789062 209.01132812 -657.17578125 208.30078125 C-657.50578125 208.30078125 -657.83578125 208.30078125 -658.17578125 208.30078125 Z " fill="#653B1B" transform="translate(866.17578125,184.69921875)"/>
<path d="M0 0 C1.90845703 0.41765625 1.90845703 0.41765625 3.85546875 0.84375 C21.7344241 5.14211025 38.02528099 14.14340042 52 26 C52.63679687 26.51433594 53.27359375 27.02867187 53.9296875 27.55859375 C74.23951922 44.21265576 85.56692383 68.87202273 91 94 C91.226875 94.99257813 91.45375 95.98515625 91.6875 97.0078125 C97.27827626 124.88404411 89.53114984 156.78381078 74.203125 180.42578125 C61.60160229 199.10060101 46.79677025 212.4275313 27 223 C26.13761719 223.48339844 25.27523437 223.96679688 24.38671875 224.46484375 C18.2643237 227.76151801 11.90082162 229.78679938 5.16040039 231.45947266 C3.51009435 231.87237553 1.86722126 232.31509868 0.22827148 232.77099609 C-7.96660295 234.90603489 -15.7901559 235.46705265 -24.20092773 235.39111328 C-26.30063605 235.37509053 -28.39839788 235.39102617 -30.49804688 235.41015625 C-61.70865525 235.4609452 -90.85967847 221.73031558 -113 200 C-113.72445312 199.30003906 -114.44890625 198.60007812 -115.1953125 197.87890625 C-138.81163688 173.45844179 -147.56474944 141.18765853 -147.21484375 108.09765625 C-146.64158361 85.14232611 -138.2216843 62.05387468 -124 44 C-122.79923828 42.46085937 -122.79923828 42.46085937 -121.57421875 40.890625 C-101.75117015 16.13927507 -72.93129637 1.08192378 -41.52441406 -2.75683594 C-27.45096712 -4.11246003 -13.74258098 -3.17953506 0 0 Z " fill="#57C477" transform="translate(796,175)"/>
<path d="M0 0 C1.39888053 -0.00131236 2.79776033 -0.00394664 4.19663626 -0.0077675 C7.99377214 -0.01440012 11.79064882 -0.00258108 15.58775175 0.01256669 C19.70000016 0.0256286 23.81223616 0.02113048 27.92449951 0.01885986 C35.03373563 0.01729349 42.1428886 0.02663577 49.25210381 0.04357338 C59.53058267 0.06804567 69.80902167 0.07577703 80.08752651 0.07953735 C96.76724114 0.08608898 113.44691153 0.10601504 130.12660217 0.13444519 C146.32093587 0.16201921 162.51525752 0.1832364 178.70960999 0.19596863 C179.70929965 0.1967568 180.70898931 0.19754497 181.7389726 0.19835702 C186.75456095 0.20227238 191.77014938 0.20606345 196.78573787 0.20979273 C238.3372984 0.24084849 279.88880486 0.29447976 321.44032288 0.36076355 C321.77032288 14.22076355 322.10032288 28.08076355 322.44032288 42.36076355 C318.14034271 42.36440918 313.84036255 42.36805481 309.41007996 42.37181091 C269.97270948 42.40709228 230.53540563 42.46212592 191.09809292 42.5386845 C185.92864121 42.54870188 180.75918918 42.55854603 175.58973694 42.56828308 C174.04602845 42.57119514 174.04602845 42.57119514 172.47113393 42.57416603 C155.81042087 42.60518181 139.14972157 42.62216551 122.48898508 42.63395777 C105.39180988 42.6463715 88.29470694 42.67387796 71.19757736 42.71537662 C60.64887523 42.7405056 50.10029293 42.75388126 39.55156045 42.75219312 C32.31657 42.75216335 25.08170157 42.7668021 17.84675868 42.79292783 C13.6733944 42.80756637 9.50028032 42.81578311 5.32689476 42.80656624 C1.50197197 42.79826203 -2.32244872 42.80848103 -6.14729716 42.83310017 C-8.17790012 42.84144584 -10.20855478 42.83026459 -12.23913944 42.8182652 C-21.08938806 42.90119514 -27.83836154 44.42305608 -35.37217712 49.11076355 C-43.38912361 57.35676565 -44.90985916 66.12709972 -44.87217712 77.23576355 C-44.88829041 78.17806824 -44.90440369 79.12037292 -44.92100525 80.0912323 C-44.92675641 88.40740512 -43.66368218 95.81949046 -37.93467712 102.17326355 C-37.3236615 102.88095886 -36.71264587 103.58865417 -36.08311462 104.3177948 C-27.87772233 110.96086008 -19.22469695 110.91472059 -9.11167908 110.8057251 C-7.54290293 110.80372109 -5.97412365 110.80351297 -4.40534687 110.8049373 C-0.11026886 110.80386847 4.18435637 110.77807753 8.47931814 110.74831951 C13.11738081 110.72069261 17.75546863 110.71650291 22.39360046 110.70988464 C30.42622084 110.69570364 38.45870386 110.66814704 46.49125671 110.63266182 C59.18871463 110.57764229 71.88607147 110.56292371 84.58363342 110.55447388 C88.93026753 110.55107237 93.27690137 110.54738535 97.62353516 110.54359341 C99.25276223 110.54218293 99.25276223 110.54218293 100.91490299 110.54074397 C113.26941744 110.52943976 125.62391245 110.50923537 137.97840881 110.48551941 C139.10739212 110.4833626 140.23637542 110.4812058 141.39957035 110.47898363 C159.7062093 110.4430602 178.01268496 110.37996965 196.31922233 110.31043024 C215.12186157 110.2400433 233.92426738 110.21182881 252.72703648 110.21943849 C264.32166054 110.22253371 275.91514715 110.19076427 287.50952363 110.11419182 C295.45281943 110.06460251 303.39553104 110.05485521 311.33894992 110.07647098 C315.92199373 110.08767045 320.50317273 110.08088352 325.08594131 110.02596092 C329.28384434 109.97600326 333.47858268 109.97696453 337.67655432 110.01795702 C339.19263386 110.02382258 340.70892561 110.01115241 342.22464979 109.97780884 C353.54949221 109.74361107 353.54949221 109.74361107 358.2752285 113.78534591 C360.54096812 116.54795175 362.4888745 119.37242371 364.44032288 122.36076355 C366.35989972 124.4063661 368.37371371 126.14712356 370.50282288 127.98576355 C372.16208568 129.42879869 373.81266052 130.88217681 375.44032288 132.36076355 C375.44032288 132.69076355 375.44032288 133.02076355 375.44032288 133.36076355 C324.59360848 133.42945833 273.74689879 133.4823069 222.9001471 133.51395954 C216.89465874 133.51771157 210.88917047 133.52159455 204.88368225 133.52555847 C203.09033598 133.52673887 203.09033598 133.52673887 201.2607605 133.52794311 C181.91265725 133.54099033 162.56458078 133.56464042 143.21649341 133.59222194 C123.35758956 133.62029514 103.49869971 133.63694387 83.63977683 133.64302903 C71.38977874 133.64714149 59.13985639 133.66012167 46.88988163 133.68451295 C38.484998 133.70039377 30.08015342 133.70515859 21.67525588 133.70126768 C16.8290319 133.6993498 11.9829401 133.70225093 7.13673973 133.71837997 C2.69245503 133.73306274 -1.75160958 133.73366198 -6.19590478 133.72346023 C-7.79641691 133.72220082 -9.39694321 133.72593506 -10.99742778 133.7354131 C-34.62512895 133.86710194 -56.72628954 127.04717959 -73.86045837 110.2552948 C-84.51835655 98.82620283 -90.17114259 84.026138 -89.79795837 68.4506073 C-88.47158026 51.25117959 -79.70349173 37.04962256 -67.55967712 25.36076355 C-66.83006775 24.6234198 -66.10045837 23.88607605 -65.34873962 23.12638855 C-47.99049625 6.47796182 -23.45388145 -0.16218867 0 0 Z " fill="#FB7A79" transform="translate(303.55967712402344,271.6392364501953)"/>
<path d="M0 0 C1.43015065 -0.0057136 2.86029675 -0.01268166 4.29043579 -0.02079773 C8.14556212 -0.03862654 12.00045961 -0.03758137 15.85561466 -0.03185534 C19.08152342 -0.02875122 22.30738899 -0.03486886 25.53329158 -0.04089409 C33.14234863 -0.05490133 40.75129328 -0.05340734 48.36035156 -0.04199219 C56.20061943 -0.03048992 64.04054606 -0.04463047 71.88076901 -0.07138866 C78.62752982 -0.09354952 85.37418351 -0.10018292 92.12097812 -0.09431225 C96.14416364 -0.09094537 100.16712997 -0.09334087 104.19028473 -0.11056328 C107.96946344 -0.12603874 111.74813542 -0.12207081 115.52729416 -0.10325813 C116.9115807 -0.09957514 118.29590488 -0.10267239 119.68015671 -0.11314392 C132.73230148 -0.2043273 132.73230148 -0.2043273 137.55761719 4.40405273 C138.73886949 6.76655735 138.68838435 8.18978162 138.69805908 10.8249054 C138.70376923 11.75440002 138.70947937 12.68389465 138.71536255 13.64155579 C138.71703934 15.17588509 138.71703934 15.17588509 138.71875 16.74121094 C138.7237149 17.81611786 138.72867981 18.89102478 138.73379517 19.99850464 C138.74844327 23.56728752 138.75522333 27.13602594 138.76074219 30.70483398 C138.76649161 33.17864484 138.77224936 35.65245567 138.77801514 38.12626648 C138.78853277 43.31904305 138.7943704 48.51180411 138.79785156 53.70458984 C138.80255057 60.36289355 138.8273625 67.02096374 138.85582352 73.67921162 C138.87443526 78.7912608 138.87965473 83.9032606 138.88118744 89.01534081 C138.88421797 91.47016708 138.89225989 93.92499241 138.90537262 96.37978554 C138.92240158 99.8129194 138.92056027 103.24555213 138.9140625 106.67871094 C138.92327728 107.69552444 138.93249207 108.71233795 138.94198608 109.75996399 C138.88929158 118.63474814 138.88929158 118.63474814 135.55761719 122.40405273 C132.24345007 124.50884061 129.57544491 124.65710007 125.69055176 124.66474915 C123.89085937 124.67537636 123.89085937 124.67537636 122.05480957 124.68621826 C120.08490051 124.68250214 120.08490051 124.68250214 118.07519531 124.67871094 C116.67537158 124.6830593 115.27555024 124.68824286 113.87573242 124.69419861 C110.07360513 124.70759509 106.27157722 124.70816595 102.46943092 124.70563531 C99.28913307 124.70456478 96.10885525 124.7094517 92.92856169 124.71424073 C85.4162264 124.72534084 77.90394109 124.72577226 70.39160156 124.71972656 C62.66410704 124.71370266 54.93679532 124.72595616 47.20933199 124.74729663 C40.56112403 124.76497575 33.9129739 124.77090359 27.26474333 124.76765889 C23.30055496 124.76585392 19.33649663 124.76840181 15.37232971 124.78237343 C11.63597258 124.79504808 7.89989705 124.79291779 4.1635437 124.77996254 C2.15723928 124.77650844 0.15092588 124.78770698 -1.85534668 124.79953003 C-19.59291029 124.69774538 -35.18008435 118.99514554 -47.75097656 106.34545898 C-61.36702434 91.46464045 -65.19475939 74.35431086 -64.57421875 54.70385742 C-63.7557214 40.42562593 -56.27821839 27.4507638 -46.44238281 17.40405273 C-32.27979977 5.11452386 -18.61332383 -0.06348598 0 0 Z " fill="#FED129" transform="translate(710.4423828125,539.595947265625)"/>
<path d="M0 0 C1.0533442 0.00075944 2.10668839 0.00151888 3.19195211 0.00230134 C4.40467247 -0.00168076 5.61739283 -0.00566286 6.8668623 -0.00976562 C8.22477556 -0.00405882 9.58268805 0.00183239 10.9405998 0.00788796 C12.37363241 0.00701655 13.80666472 0.00526676 15.23969531 0.00270963 C19.19156315 -0.00178058 23.14332341 0.00626261 27.09517753 0.01626575 C31.35148758 0.02487398 35.60779119 0.02198196 39.86410749 0.0204612 C47.24311111 0.01941068 54.62207945 0.0257047 62.00107419 0.03693688 C72.66995842 0.05316633 83.33882552 0.05839726 94.00772075 0.06091286 C111.31579094 0.06529399 128.62384232 0.07861439 145.93190229 0.09751809 C162.7486331 0.1158661 179.56535881 0.13002788 196.3820976 0.13853371 C197.93604063 0.13932188 197.93604063 0.13932188 199.52137645 0.14012598 C204.71830787 0.14273598 209.91523933 0.14526341 215.11217082 0.14774978 C258.25033653 0.16849528 301.38848172 0.20373215 344.52662885 0.24839699 C344.86073774 0.91806496 345.19484663 1.58773293 345.53908002 2.27769387 C345.98227582 3.1652134 346.42547163 4.05273293 346.8820976 4.96714699 C347.31933149 5.84306496 347.75656538 6.71898293 348.20704877 7.62144387 C349.04431093 9.28822292 349.88869884 10.95145681 350.74269331 12.60972512 C353.52662885 18.03998016 353.52662885 18.03998016 353.52662885 20.24839699 C308.20838169 20.29413167 262.89013696 20.32939443 217.57187129 20.35052765 C212.22687507 20.35302919 206.8818789 20.35561783 201.53688276 20.35826027 C200.47274852 20.35878489 199.40861428 20.35930952 198.31223355 20.35985003 C181.06088505 20.36856289 163.80954982 20.38433768 146.5582092 20.40270258 C128.86898625 20.42137718 111.17977028 20.43250854 93.49053788 20.43657398 C82.56717052 20.43932412 71.64384066 20.44802356 60.72048484 20.46422993 C53.239381 20.47476672 45.75829666 20.47800516 38.27718593 20.47539975 C33.95499368 20.47411328 29.63286716 20.47614468 25.31068647 20.48680794 C21.35927696 20.49648579 17.40797787 20.49706782 13.45656346 20.49019478 C12.02181106 20.48934437 10.58705199 20.49192763 9.15231289 20.49816336 C7.21239396 20.50610916 5.27243371 20.50070208 3.33250844 20.49449265 C2.25182438 20.49525209 1.17114033 20.49601153 0.05770826 20.49679399 C-2.47337115 20.24839699 -2.47337115 20.24839699 -4.47337115 18.24839699 C-4.67189217 15.53916899 -4.75176592 12.9553652 -4.72337115 10.24839699 C-4.73110552 9.51105324 -4.7388399 8.77370949 -4.74680865 8.01402199 C-4.71929014 0.4739513 -4.71929014 0.4739513 0 0 Z " fill="#D54A3C" transform="translate(286.47337114810944,338.7516030073166)"/>
<path d="M0 0 C3.76367351 1.63637979 5.84255892 3.53960995 8 7 C8.70864936 11.66180115 8.61586165 16.30638046 7 20.75 C5.1984261 22.77677064 3.37939744 24.44126419 1.32366943 26.20004272 C-2.66885419 29.67048288 -6.44546663 33.30368679 -10.17871094 37.04931641 C-10.84645035 37.7153035 -11.51418976 38.38129059 -12.2021637 39.06745911 C-14.38206877 41.24300597 -16.5583464 43.42213884 -18.734375 45.6015625 C-20.26020974 47.12672271 -21.78619283 48.65173452 -23.31231689 50.17660522 C-26.49776145 53.36058119 -29.68140466 56.54634443 -32.86376953 59.73339844 C-36.93790869 63.81324896 -41.01654078 67.88857374 -45.09652328 71.96257973 C-48.24332625 75.10576684 -51.38774075 78.25133464 -54.53144073 81.39762497 C-56.03457548 82.90142539 -57.53844954 84.4044872 -59.04308319 85.90678787 C-61.14410994 88.00526971 -63.24189555 90.10693965 -65.33886719 92.20947266 C-66.26624443 93.13381355 -66.26624443 93.13381355 -67.21235657 94.076828 C-69.69397345 96.57062513 -72.02011159 99.02521659 -74.21710205 101.77987671 C-77.19524068 105.48835309 -80.60142009 107.58630765 -85.2421875 108.38671875 C-90.67703461 108.6520564 -93.72682213 107.34280977 -98 104 C-101.20030936 101.07553998 -104.24879657 98.00775315 -107.30078125 94.9296875 C-108.17776169 94.05224884 -109.05474213 93.17481018 -109.95829773 92.27078247 C-112.27464019 89.95065903 -114.58631968 87.62601218 -116.8961792 85.29943848 C-119.25448299 82.92761801 -121.6211544 80.56418786 -123.98632812 78.19921875 C-125.77911975 76.40151416 -127.57145363 74.60335294 -129.36328125 72.8046875 C-130.21424881 71.95260712 -131.06521637 71.10052673 -131.94197083 70.22262573 C-132.72335922 69.43485748 -133.50474762 68.64708923 -134.30981445 67.83544922 C-135.00009232 67.14135956 -135.69037018 66.4472699 -136.40156555 65.73214722 C-139.42782752 62.45273138 -139.33654598 59.61957519 -139.28125 55.3203125 C-138.71893157 50.68118541 -136.19872011 47.97193522 -132.6875 45.125 C-129.16108808 43.64882757 -126.79611 43.53381105 -123 44 C-118.60218417 46.61703131 -114.84184966 49.75943446 -111.125 53.25 C-110.58270752 53.7543457 -110.04041504 54.25869141 -109.48168945 54.77832031 C-102.13931915 61.66521371 -95.0752209 68.84087221 -88 76 C-83.11037203 71.90008835 -78.51201711 67.64380399 -74.02661133 63.10839844 C-73.36877151 62.44749207 -72.7109317 61.78658569 -72.03315735 61.10565186 C-70.61728227 59.68266931 -69.20253811 58.25856076 -67.7888279 56.83342743 C-65.55100072 54.57810183 -63.30955436 52.32643147 -61.06706238 50.07574463 C-54.69609391 43.68040756 -48.33086651 37.27937858 -41.9699707 30.87402344 C-38.06932123 26.94661662 -34.1638349 23.02407414 -30.25531578 19.10449982 C-28.76905874 17.61203374 -27.28470205 16.11767271 -25.80228615 14.6213913 C-23.73445209 12.5343732 -21.66056051 10.45355843 -19.58520508 8.37402344 C-18.97473328 7.75479004 -18.36426147 7.13555664 -17.73529053 6.49755859 C-17.16774551 5.93131775 -16.6002005 5.3650769 -16.01545715 4.78167725 C-15.52678067 4.28985836 -15.03810419 3.79803947 -14.53461933 3.29131699 C-10.07593439 -0.46047702 -5.60241704 -0.65144384 0 0 Z " fill="#683A1B" transform="translate(836,231)"/>
<path d="M0 0 C3.05065077 1.93542254 5.44851075 4.45813901 8 7 C24.09329239 21.66150481 42.70232175 25.95127487 64.09375 25.4140625 C71.99440245 25.01194863 78.77237217 23.12007815 86 20 C87.48306641 19.36578125 87.48306641 19.36578125 88.99609375 18.71875 C95.78976446 15.40382415 100.9908611 10.69383102 106.37109375 5.48828125 C112.62740351 -0.43336707 112.62740351 -0.43336707 117.375 -0.5 C122.4446815 -0.3494154 124.55877551 1.38671429 128 5 C129.60966087 8.21932173 129.45943235 11.50831417 129 15 C127.4375 18 127.4375 18 125 21 C124.30583984 21.90685547 124.30583984 21.90685547 123.59765625 22.83203125 C111.52426223 37.79831675 94.24146078 44.91215457 76 49 C75.23220215 49.1750708 74.4644043 49.3501416 73.67333984 49.53051758 C49.21630191 53.82557547 24.1695839 48.38206436 3.5 35 C-14.07391606 22.59348203 -14.07391606 22.59348203 -16.54296875 12.859375 C-16.81547178 9.00014289 -15.96890679 6.50112941 -13.625 3.5625 C-9.44597385 -0.51702553 -5.69853179 -1.10116556 0 0 Z " fill="#643B1B" transform="translate(401,635)"/>
<path d="M0 0 C7.28269141 5.2404552 12.15544394 11.40108902 14.25 20.25 C15.33658275 30.5392734 14.57937789 39.16150694 8.51953125 47.68359375 C3.48618749 53.8019697 -2.76205751 58.84690054 -10.75 60.25 C-22.67403966 60.99909003 -31.45794852 60.76868458 -41 52.9375 C-48.67600177 45.7345719 -52.6792771 37.98518081 -53.1875 27.3125 C-52.78855114 17.50756448 -48.85468213 10.37984359 -42.12109375 3.4140625 C-29.82514102 -7.80827327 -14.10947009 -8.82431742 0 0 Z " fill="#663A1C" transform="translate(730.75,574.75)"/>
<path d="M0 0 C7.9680589 4.13309178 13.31594793 10.75612957 16.421875 19.12890625 C16.95508562 22.29732308 16.99584469 25.35933799 16.921875 28.56640625 C16.90979004 29.40461914 16.89770508 30.24283203 16.88525391 31.10644531 C16.69057318 37.15452649 15.97606974 42.08459882 12.421875 47.12890625 C11.98617187 47.76957031 11.55046875 48.41023437 11.1015625 49.0703125 C6.7948399 54.70670629 2.19276653 57.61142113 -4.8515625 58.578125 C-13.20363884 58.9857643 -19.26710704 57.78906416 -25.578125 52.12890625 C-28.01985028 49.3139236 -29.8598772 46.42930302 -31.578125 43.12890625 C-31.91714844 42.50242187 -32.25617187 41.8759375 -32.60546875 41.23046875 C-36.05458193 33.69646115 -35.76797801 24.51587654 -33.015625 16.81640625 C-29.6784464 9.56423368 -24.48604539 4.05386102 -17.578125 0.12890625 C-11.96739409 -1.74133739 -5.63029936 -1.90235872 0 0 Z " fill="#653C1B" transform="translate(547.578125,541.87109375)"/>
<path d="M0 0 C7.79336658 3.93604373 12.7386938 10.08960566 15.6875 18.2421875 C17.99998521 27.77794113 17.01595077 37.45811682 12.3828125 46.109375 C8.62739353 51.74725715 4.0589315 56.34670332 -2.6171875 58.109375 C-10.26691957 59.02964352 -17.35994217 58.97458998 -23.6171875 54.109375 C-30.47531562 48.11204074 -33.94247365 40.88269973 -34.99609375 31.8671875 C-35.26576682 24.47292579 -34.10701346 18.62832382 -30.6171875 12.109375 C-30.10865234 11.13871094 -30.10865234 11.13871094 -29.58984375 10.1484375 C-23.2449986 -0.1929827 -11.34763246 -3.86158239 0 0 Z " fill="#653C1B" transform="translate(386.6171875,541.890625)"/>
<path d="M0 0 C3.62364079 0.8665228 5.09430301 2.48714036 7.15625 5.515625 C8.51477611 9.91085652 8.56996666 11.70351451 6.46875 15.828125 C3.08287116 19.76306527 3.08287116 19.76306527 0.15625 20.515625 C-4.46519627 20.515625 -6.30378226 19.99814936 -9.78125 16.890625 C-12.21682556 12.90513772 -12.66262423 11.10132066 -11.84375 6.515625 C-8.76886857 1.06019021 -6.0491204 -0.44360216 0 0 Z " fill="#FBD32A" transform="translate(713.84375,592.484375)"/>
</svg>
